<svg width="28" height="84" viewBox="0 0 28 84" fill="none" xmlns="http://www.w3.org/2000/svg">
<path d="M25.9992 13.9351C26.0108 15.5263 25.705 17.1039 25.0995 18.5755C24.4941 20.047 23.6013 21.3828 22.4733 22.5047C17.8597 27.121 10.3078 27.171 5.63163 22.6172C3.91606 20.9469 2.73883 18.8014 2.2512 16.4565C1.76357 14.1115 1.98781 11.6743 2.89511 9.45785C3.80241 7.24141 5.35132 5.34704 7.34284 4.01813C9.33436 2.68923 11.6775 1.98648 14.0712 2.0002C14.221 2.00241 14.3684 2.03783 14.5029 2.10392C14.6373 2.17 14.7554 2.26511 14.8487 2.38237C14.942 2.49964 15.0081 2.63615 15.0423 2.78207C15.0765 2.92798 15.0779 3.07968 15.0465 3.22621C14.9162 3.80744 14.9172 4.41043 15.0494 4.99122C15.1816 5.57201 15.4416 6.11597 15.8106 6.58344C16.1796 7.0509 16.6481 7.43009 17.1821 7.69336C17.7162 7.95663 18.3022 8.09735 18.8974 8.10525C19.1627 8.10525 19.4171 8.21069 19.6047 8.39838C19.7923 8.58607 19.8977 8.84064 19.8977 9.10607C19.9056 9.70168 20.0462 10.288 20.3093 10.8224C20.5724 11.3567 20.9514 11.8255 21.4186 12.1947C21.8858 12.5639 22.4294 12.8241 23.0099 12.9564C23.5904 13.0886 24.193 13.0896 24.7739 12.9593C24.9203 12.9278 25.0719 12.9292 25.2178 12.9634C25.3636 12.9976 25.5 13.0638 25.6172 13.1571C25.7344 13.2505 25.8295 13.3687 25.8955 13.5032C25.9616 13.6377 25.997 13.7852 25.9992 13.9351V13.9351Z" stroke="#282828" stroke-width="2.00225" stroke-linecap="round" stroke-linejoin="round"/>
<path d="M17.5105 21.0144C18.3398 21.0144 19.0122 20.3421 19.0122 19.5127C19.0122 18.6834 18.3398 18.011 17.5105 18.011C16.6811 18.011 16.0088 18.6834 16.0088 19.5127C16.0088 20.3421 16.6811 21.0144 17.5105 21.0144Z" fill="#282828"/>
<path d="M9.50144 20.0133C10.3308 20.0133 11.0031 19.3409 11.0031 18.5116C11.0031 17.6822 10.3308 17.0099 9.50144 17.0099C8.67208 17.0099 7.99976 17.6822 7.99976 18.5116C7.99976 19.3409 8.67208 20.0133 9.50144 20.0133Z" fill="#282828"/>
<path d="M8.50047 13.0055C9.32983 13.0055 10.0022 12.3331 10.0022 11.5038C10.0022 10.6744 9.32983 10.0021 8.50047 10.0021C7.67111 10.0021 6.99878 10.6744 6.99878 11.5038C6.99878 12.3331 7.67111 13.0055 8.50047 13.0055Z" fill="#282828"/>
<path d="M15.0078 15.0076C15.8372 15.0076 16.5095 14.3353 16.5095 13.506C16.5095 12.6766 15.8372 12.0043 15.0078 12.0043C14.1784 12.0043 13.5061 12.6766 13.5061 13.506C13.5061 14.3353 14.1784 15.0076 15.0078 15.0076Z" fill="#282828"/>
<g clip-path="url(#clip0_15_16)">
<path d="M25.9992 69.9351C26.0108 71.5263 25.705 73.1039 25.0995 74.5755C24.4941 76.047 23.6013 77.3828 22.4733 78.5047C17.8597 83.121 10.3078 83.171 5.63163 78.6172C3.91606 76.9469 2.73883 74.8014 2.2512 72.4565C1.76357 70.1115 1.98781 67.6743 2.89511 65.4579C3.80241 63.2414 5.35132 61.347 7.34284 60.0181C9.33436 58.6892 11.6775 57.9865 14.0712 58.0002C14.221 58.0024 14.3684 58.0378 14.5029 58.1039C14.6373 58.17 14.7554 58.2651 14.8487 58.3824C14.942 58.4996 15.0081 58.6361 15.0423 58.7821C15.0765 58.928 15.0779 59.0797 15.0465 59.2262C14.9162 59.8074 14.9172 60.4104 15.0494 60.9912C15.1816 61.572 15.4416 62.116 15.8106 62.5834C16.1796 63.0509 16.6481 63.4301 17.1821 63.6934C17.7162 63.9566 18.3022 64.0973 18.8974 64.1052C19.1627 64.1052 19.4171 64.2107 19.6047 64.3984C19.7923 64.5861 19.8977 64.8406 19.8977 65.1061C19.9056 65.7017 20.0462 66.288 20.3093 66.8224C20.5724 67.3567 20.9514 67.8255 21.4186 68.1947C21.8858 68.5639 22.4294 68.8241 23.0099 68.9564C23.5904 69.0886 24.193 69.0896 24.7739 68.9593C24.9203 68.9278 25.0719 68.9292 25.2178 68.9634C25.3636 68.9976 25.5 69.0638 25.6172 69.1571C25.7344 69.2505 25.8295 69.3687 25.8955 69.5032C25.9616 69.6377 25.997 69.7852 25.9992 69.9351V69.9351Z" stroke="white" stroke-width="2.00225" stroke-linecap="round" stroke-linejoin="round"/>
<path d="M17.5105 77.0144C18.3398 77.0144 19.0122 76.3421 19.0122 75.5127C19.0122 74.6834 18.3398 74.011 17.5105 74.011C16.6811 74.011 16.0088 74.6834 16.0088 75.5127C16.0088 76.3421 16.6811 77.0144 17.5105 77.0144Z" fill="white"/>
<path d="M9.50144 76.0133C10.3308 76.0133 11.0031 75.3409 11.0031 74.5116C11.0031 73.6822 10.3308 73.0099 9.50144 73.0099C8.67208 73.0099 7.99976 73.6822 7.99976 74.5116C7.99976 75.3409 8.67208 76.0133 9.50144 76.0133Z" fill="white"/>
<path d="M8.50047 69.0055C9.32983 69.0055 10.0022 68.3331 10.0022 67.5038C10.0022 66.6744 9.32983 66.0021 8.50047 66.0021C7.67111 66.0021 6.99878 66.6744 6.99878 67.5038C6.99878 68.3331 7.67111 69.0055 8.50047 69.0055Z" fill="white"/>
<path d="M15.0078 71.0076C15.8372 71.0076 16.5095 70.3353 16.5095 69.506C16.5095 68.6766 15.8372 68.0043 15.0078 68.0043C14.1784 68.0043 13.5061 68.6766 13.5061 69.506C13.5061 70.3353 14.1784 71.0076 15.0078 71.0076Z" fill="white"/>
</g>
<defs>
<clipPath id="clip0_15_16">
<rect width="28" height="28" fill="white" transform="translate(0 56)"/>
</clipPath>
</defs>
</svg>
