<svg width="1383" height="246" viewBox="0 0 1383 246" fill="none" xmlns="http://www.w3.org/2000/svg">
<g clip-path="url(#clip0_5385_13754)">
<path d="M32.3472 56.7812H0.00390625V228.571H32.3472V56.7812Z" fill="white"/>
<path d="M172.332 228.549V120.571C172.332 93.9774 162.502 80.4801 137.537 80.4801C118.3 80.4801 98.239 93.9774 85.1323 108.299V228.549H52.7891V56.7819H83.4828V82.9524C101.493 64.956 124.007 53.5078 146.921 53.5078C186.62 53.5078 204.631 77.6514 204.631 111.996V228.571H172.287L172.332 228.549Z" fill="white"/>
<path d="M335.982 228.549V120.571C335.982 93.9774 326.152 80.4801 301.186 80.4801C281.95 80.4801 261.889 93.9774 248.804 108.299V228.549H216.461V56.7819H247.155V82.9524C265.165 64.956 287.679 53.5078 310.593 53.5078C350.292 53.5078 368.303 77.6514 368.303 111.996V228.571H335.959L335.982 228.549Z" fill="white"/>
<path d="M687.284 152.487H561.21C564.888 181.931 581.271 204.026 625.473 204.026C639.806 204.026 656.991 199.928 672.951 194.604L678.68 222C659.042 227.724 638.557 231.822 622.597 231.822C560.786 231.822 529.691 192.978 529.691 143.466C529.691 93.9539 559.984 53.4844 613.191 53.4844C661.895 53.4844 688.51 89.4771 688.51 136.116C688.51 141.84 688.51 146.339 687.284 152.487ZM658.619 127.942C656.568 101.348 641.433 80.5012 611.14 80.5012C583.3 80.5012 566.114 98.4976 562.436 127.942H658.619Z" fill="white"/>
<path d="M818.77 228.549V120.571C818.77 93.9774 808.939 80.4801 783.974 80.4801C764.738 80.4801 744.677 93.9774 731.57 108.299V228.549H699.227V56.7819H729.92V82.9524C747.931 64.956 770.444 53.5078 793.359 53.5078C833.058 53.5078 851.068 77.6514 851.068 111.996V228.571H818.725L818.77 228.549Z" fill="white"/>
<path d="M911.437 84.599V181.129C911.437 197.076 920.442 203.624 938.453 203.624C943.357 203.624 947.057 203.224 952.785 202.399L956.062 228.57C945.831 230.619 936.825 231.844 927.82 231.844C896.703 231.844 879.941 215.474 879.941 177.855V84.599H852.523V80.5008L879.941 53.9072V24.0617L911.437 0.742188V56.7804H962.192V84.599H911.437Z" fill="white"/>
<path d="M1092.76 228.549V204.427C1078.03 218.749 1053.47 231.823 1030.95 231.823C990.83 231.823 971.594 207.701 971.594 173.334V56.7812H1003.94V164.759C1003.94 191.353 1015.39 204.85 1039.96 204.85C1059.19 204.85 1078.03 192.578 1091.11 178.68V56.7812H1123.46V228.571H1092.76V228.549Z" fill="white"/>
<path d="M1170.8 111.172V228.571H1138.46V56.7819H1169.15V85.4024C1185.54 64.1319 1208.03 53.5078 1230.54 53.5078V85.0015C1205.58 85.0015 1182.66 93.9996 1170.78 111.172" fill="white"/>
<path d="M1380.89 152.487H1254.81C1258.49 181.931 1274.88 204.026 1319.08 204.026C1333.41 204.026 1350.6 199.928 1366.56 194.604L1372.28 222C1352.65 227.724 1332.18 231.822 1316.2 231.822C1254.39 231.822 1223.27 192.978 1223.27 143.466C1223.27 93.9539 1253.57 53.4844 1306.77 53.4844C1355.48 53.4844 1382.09 89.4771 1382.09 136.116C1382.09 141.84 1382.09 146.339 1380.87 152.487M1352.22 127.942C1350.17 101.348 1335.04 80.5012 1304.74 80.5012C1276.9 80.5012 1259.72 98.4976 1256.04 127.942H1352.22Z" fill="white"/>
<path d="M513.283 55.5996L455.261 176.541L397.217 55.5996H364.316L455.261 245.141L546.205 55.5996H513.283Z" fill="white"/>
<path d="M428.422 55.5996H482.097L455.259 111.526L428.422 55.5996Z" fill="#569642"/>
</g>
<defs>
<clipPath id="clip0_5385_13754">
<rect width="1383" height="246" fill="white"/>
</clipPath>
</defs>
</svg>
