<svg width="20" height="20" viewBox="0 0 20 20" fill="none" xmlns="http://www.w3.org/2000/svg">
<path d="M7.91797 13.7501L13.7513 10.0001L7.91797 6.25008V13.7501ZM10.0013 18.3334C8.84852 18.3334 7.76519 18.1147 6.7513 17.6772C5.73741 17.2397 4.85547 16.6459 4.10547 15.8959C3.35547 15.1459 2.76172 14.264 2.32422 13.2501C1.88672 12.2362 1.66797 11.1529 1.66797 10.0001C1.66797 8.8473 1.88672 7.76397 2.32422 6.75008C2.76172 5.73619 3.35547 4.85425 4.10547 4.10425C4.85547 3.35425 5.73741 2.7605 6.7513 2.323C7.76519 1.8855 8.84852 1.66675 10.0013 1.66675C11.1541 1.66675 12.2374 1.8855 13.2513 2.323C14.2652 2.7605 15.1471 3.35425 15.8971 4.10425C16.6471 4.85425 17.2409 5.73619 17.6784 6.75008C18.1159 7.76397 18.3346 8.8473 18.3346 10.0001C18.3346 11.1529 18.1159 12.2362 17.6784 13.2501C17.2409 14.264 16.6471 15.1459 15.8971 15.8959C15.1471 16.6459 14.2652 17.2397 13.2513 17.6772C12.2374 18.1147 11.1541 18.3334 10.0013 18.3334ZM10.0013 16.6667C11.8624 16.6667 13.4388 16.0209 14.7305 14.7292C16.0221 13.4376 16.668 11.8612 16.668 10.0001C16.668 8.13897 16.0221 6.56258 14.7305 5.27091C13.4388 3.97925 11.8624 3.33341 10.0013 3.33341C8.14019 3.33341 6.5638 3.97925 5.27214 5.27091C3.98047 6.56258 3.33464 8.13897 3.33464 10.0001C3.33464 11.8612 3.98047 13.4376 5.27214 14.7292C6.5638 16.0209 8.14019 16.6667 10.0013 16.6667Z" fill="white"/>
</svg>
