<svg width="24" height="75" viewBox="0 0 24 75" fill="none" xmlns="http://www.w3.org/2000/svg">
<path d="M22.2234 1H1.77187C0.792187 1 0 1.77344 0 2.72969V23.2656C0 24.2219 0.792187 25 1.77187 25H22.2234C23.2031 25 24 24.2219 24 23.2703V2.72969C24 1.77344 23.2031 1 22.2234 1ZM7.12031 21.4516H3.55781V9.99531H7.12031V21.4516ZM5.33906 8.43437C4.19531 8.43437 3.27187 7.51094 3.27187 6.37187C3.27187 5.23281 4.19531 4.30937 5.33906 4.30937C6.47812 4.30937 7.40156 5.23281 7.40156 6.37187C7.40156 7.50625 6.47812 8.43437 5.33906 8.43437ZM20.4516 21.4516H16.8937V15.8828C16.8937 14.5562 16.8703 12.8453 15.0422 12.8453C13.1906 12.8453 12.9094 14.2937 12.9094 15.7891V21.4516H9.35625V9.99531H12.7687V11.5609H12.8156C13.2891 10.6609 14.4516 9.70937 16.1813 9.70937C19.7859 9.70937 20.4516 12.0812 20.4516 15.1656V21.4516V21.4516Z" fill="white"/>
<path d="M22.2234 51H1.77187C0.792187 51 0 51.7734 0 52.7297V73.2656C0 74.2219 0.792187 75 1.77187 75H22.2234C23.2031 75 24 74.2219 24 73.2703V52.7297C24 51.7734 23.2031 51 22.2234 51ZM7.12031 71.4516H3.55781V59.9953H7.12031V71.4516ZM5.33906 58.4344C4.19531 58.4344 3.27187 57.5109 3.27187 56.3719C3.27187 55.2328 4.19531 54.3094 5.33906 54.3094C6.47812 54.3094 7.40156 55.2328 7.40156 56.3719C7.40156 57.5062 6.47812 58.4344 5.33906 58.4344ZM20.4516 71.4516H16.8937V65.8828C16.8937 64.5562 16.8703 62.8453 15.0422 62.8453C13.1906 62.8453 12.9094 64.2937 12.9094 65.7891V71.4516H9.35625V59.9953H12.7687V61.5609H12.8156C13.2891 60.6609 14.4516 59.7094 16.1813 59.7094C19.7859 59.7094 20.4516 62.0812 20.4516 65.1656V71.4516V71.4516Z" fill="#94C872"/>
</svg>
