<svg width="24" height="75" viewBox="0 0 24 75" fill="none" xmlns="http://www.w3.org/2000/svg">
<path d="M18.3263 3H21.6998L14.3297 11.4235L23 22.886H16.2112L10.894 15.934L4.80995 22.886H1.43443L9.31743 13.8761L1 3H7.96111L12.7674 9.35433L18.3263 3ZM17.1423 20.8668H19.0116L6.94539 4.91313H4.93946L17.1423 20.8668Z" fill="white"/>
<path d="M18.3263 53H21.6998L14.3297 61.4235L23 72.886H16.2112L10.894 65.934L4.80995 72.886H1.43443L9.31743 63.8761L1 53H7.96111L12.7674 59.3543L18.3263 53ZM17.1423 70.8668H19.0116L6.94539 54.9131H4.93946L17.1423 70.8668Z" fill="#94C872"/>
</svg>
