<svg width="24" height="75" viewBox="0 0 24 75" fill="none" xmlns="http://www.w3.org/2000/svg">
<g clip-path="url(#clip0_5407_14145)">
<path d="M12 3.16094C15.2063 3.16094 15.5859 3.175 16.8469 3.23125C18.0188 3.28281 18.6516 3.47969 19.0734 3.64375C19.6312 3.85938 20.0344 4.12187 20.4516 4.53906C20.8734 4.96094 21.1312 5.35937 21.3469 5.91719C21.5109 6.33906 21.7078 6.97656 21.7594 8.14375C21.8156 9.40937 21.8297 9.78906 21.8297 12.9906C21.8297 16.1969 21.8156 16.5766 21.7594 17.8375C21.7078 19.0094 21.5109 19.6422 21.3469 20.0641C21.1312 20.6219 20.8687 21.025 20.4516 21.4422C20.0297 21.8641 19.6312 22.1219 19.0734 22.3375C18.6516 22.5016 18.0141 22.6984 16.8469 22.75C15.5813 22.8062 15.2016 22.8203 12 22.8203C8.79375 22.8203 8.41406 22.8062 7.15313 22.75C5.98125 22.6984 5.34844 22.5016 4.92656 22.3375C4.36875 22.1219 3.96562 21.8594 3.54844 21.4422C3.12656 21.0203 2.86875 20.6219 2.65312 20.0641C2.48906 19.6422 2.29219 19.0047 2.24063 17.8375C2.18438 16.5719 2.17031 16.1922 2.17031 12.9906C2.17031 9.78437 2.18438 9.40469 2.24063 8.14375C2.29219 6.97187 2.48906 6.33906 2.65312 5.91719C2.86875 5.35937 3.13125 4.95625 3.54844 4.53906C3.97031 4.11719 4.36875 3.85938 4.92656 3.64375C5.34844 3.47969 5.98594 3.28281 7.15313 3.23125C8.41406 3.175 8.79375 3.16094 12 3.16094ZM12 1C8.74219 1 8.33438 1.01406 7.05469 1.07031C5.77969 1.12656 4.90312 1.33281 4.14375 1.62812C3.35156 1.9375 2.68125 2.34531 2.01563 3.01562C1.34531 3.68125 0.9375 4.35156 0.628125 5.13906C0.332812 5.90313 0.126563 6.775 0.0703125 8.05C0.0140625 9.33437 0 9.74219 0 13C0 16.2578 0.0140625 16.6656 0.0703125 17.9453C0.126563 19.2203 0.332812 20.0969 0.628125 20.8562C0.9375 21.6484 1.34531 22.3187 2.01563 22.9844C2.68125 23.65 3.35156 24.0625 4.13906 24.3672C4.90313 24.6625 5.775 24.8687 7.05 24.925C8.32969 24.9812 8.7375 24.9953 11.9953 24.9953C15.2531 24.9953 15.6609 24.9812 16.9406 24.925C18.2156 24.8687 19.0922 24.6625 19.8516 24.3672C20.6391 24.0625 21.3094 23.65 21.975 22.9844C22.6406 22.3187 23.0531 21.6484 23.3578 20.8609C23.6531 20.0969 23.8594 19.225 23.9156 17.95C23.9719 16.6703 23.9859 16.2625 23.9859 13.0047C23.9859 9.74688 23.9719 9.33906 23.9156 8.05937C23.8594 6.78437 23.6531 5.90781 23.3578 5.14844C23.0625 4.35156 22.6547 3.68125 21.9844 3.01562C21.3188 2.35 20.6484 1.9375 19.8609 1.63281C19.0969 1.3375 18.225 1.13125 16.95 1.075C15.6656 1.01406 15.2578 1 12 1Z" fill="white"/>
<path d="M12 6.83594C8.59688 6.83594 5.83594 9.59688 5.83594 13C5.83594 16.4031 8.59688 19.1641 12 19.1641C15.4031 19.1641 18.1641 16.4031 18.1641 13C18.1641 9.59688 15.4031 6.83594 12 6.83594ZM12 16.9984C9.79219 16.9984 8.00156 15.2078 8.00156 13C8.00156 10.7922 9.79219 9.00156 12 9.00156C14.2078 9.00156 15.9984 10.7922 15.9984 13C15.9984 15.2078 14.2078 16.9984 12 16.9984Z" fill="white"/>
<path d="M19.8469 6.5919C19.8469 7.38877 19.2 8.03096 18.4078 8.03096C17.6109 8.03096 16.9688 7.38408 16.9688 6.5919C16.9688 5.79502 17.6156 5.15283 18.4078 5.15283C19.2 5.15283 19.8469 5.79971 19.8469 6.5919Z" fill="white"/>
</g>
<g clip-path="url(#clip1_5407_14145)">
<path d="M12 53.1609C15.2063 53.1609 15.5859 53.175 16.8469 53.2312C18.0188 53.2828 18.6516 53.4797 19.0734 53.6438C19.6312 53.8594 20.0344 54.1219 20.4516 54.5391C20.8734 54.9609 21.1312 55.3594 21.3469 55.9172C21.5109 56.3391 21.7078 56.9766 21.7594 58.1437C21.8156 59.4094 21.8297 59.7891 21.8297 62.9906C21.8297 66.1969 21.8156 66.5766 21.7594 67.8375C21.7078 69.0094 21.5109 69.6422 21.3469 70.0641C21.1312 70.6219 20.8687 71.025 20.4516 71.4422C20.0297 71.8641 19.6312 72.1219 19.0734 72.3375C18.6516 72.5016 18.0141 72.6984 16.8469 72.75C15.5813 72.8062 15.2016 72.8203 12 72.8203C8.79375 72.8203 8.41406 72.8062 7.15313 72.75C5.98125 72.6984 5.34844 72.5016 4.92656 72.3375C4.36875 72.1219 3.96562 71.8594 3.54844 71.4422C3.12656 71.0203 2.86875 70.6219 2.65312 70.0641C2.48906 69.6422 2.29219 69.0047 2.24063 67.8375C2.18438 66.5719 2.17031 66.1922 2.17031 62.9906C2.17031 59.7844 2.18438 59.4047 2.24063 58.1437C2.29219 56.9719 2.48906 56.3391 2.65312 55.9172C2.86875 55.3594 3.13125 54.9562 3.54844 54.5391C3.97031 54.1172 4.36875 53.8594 4.92656 53.6438C5.34844 53.4797 5.98594 53.2828 7.15313 53.2312C8.41406 53.175 8.79375 53.1609 12 53.1609ZM12 51C8.74219 51 8.33438 51.0141 7.05469 51.0703C5.77969 51.1266 4.90312 51.3328 4.14375 51.6281C3.35156 51.9375 2.68125 52.3453 2.01563 53.0156C1.34531 53.6812 0.9375 54.3516 0.628125 55.1391C0.332812 55.9031 0.126563 56.775 0.0703125 58.05C0.0140625 59.3344 0 59.7422 0 63C0 66.2578 0.0140625 66.6656 0.0703125 67.9453C0.126563 69.2203 0.332812 70.0969 0.628125 70.8562C0.9375 71.6484 1.34531 72.3187 2.01563 72.9844C2.68125 73.65 3.35156 74.0625 4.13906 74.3672C4.90313 74.6625 5.775 74.8687 7.05 74.925C8.32969 74.9812 8.7375 74.9953 11.9953 74.9953C15.2531 74.9953 15.6609 74.9812 16.9406 74.925C18.2156 74.8687 19.0922 74.6625 19.8516 74.3672C20.6391 74.0625 21.3094 73.65 21.975 72.9844C22.6406 72.3187 23.0531 71.6484 23.3578 70.8609C23.6531 70.0969 23.8594 69.225 23.9156 67.95C23.9719 66.6703 23.9859 66.2625 23.9859 63.0047C23.9859 59.7469 23.9719 59.3391 23.9156 58.0594C23.8594 56.7844 23.6531 55.9078 23.3578 55.1484C23.0625 54.3516 22.6547 53.6812 21.9844 53.0156C21.3188 52.35 20.6484 51.9375 19.8609 51.6328C19.0969 51.3375 18.225 51.1312 16.95 51.075C15.6656 51.0141 15.2578 51 12 51Z" fill="#94C872"/>
<path d="M12 56.8359C8.59688 56.8359 5.83594 59.5969 5.83594 63C5.83594 66.4031 8.59688 69.1641 12 69.1641C15.4031 69.1641 18.1641 66.4031 18.1641 63C18.1641 59.5969 15.4031 56.8359 12 56.8359ZM12 66.9984C9.79219 66.9984 8.00156 65.2078 8.00156 63C8.00156 60.7922 9.79219 59.0016 12 59.0016C14.2078 59.0016 15.9984 60.7922 15.9984 63C15.9984 65.2078 14.2078 66.9984 12 66.9984Z" fill="#94C872"/>
<path d="M19.8469 56.5919C19.8469 57.3888 19.2 58.031 18.4078 58.031C17.6109 58.031 16.9688 57.3841 16.9688 56.5919C16.9688 55.795 17.6156 55.1528 18.4078 55.1528C19.2 55.1528 19.8469 55.7997 19.8469 56.5919Z" fill="#94C872"/>
</g>
<defs>
<clipPath id="clip0_5407_14145">
<rect width="24" height="24" fill="white" transform="translate(0 1)"/>
</clipPath>
<clipPath id="clip1_5407_14145">
<rect width="24" height="24" fill="white" transform="translate(0 51)"/>
</clipPath>
</defs>
</svg>
