<svg width="24" height="75" viewBox="0 0 24 75" fill="none" xmlns="http://www.w3.org/2000/svg">
<path d="M23.7609 7.20225C23.7609 7.20225 23.5266 5.54756 22.8047 4.821C21.8906 3.86475 20.8688 3.86006 20.4 3.80381C17.0438 3.56006 12.0047 3.56006 12.0047 3.56006H11.9953C11.9953 3.56006 6.95625 3.56006 3.6 3.80381C3.13125 3.86006 2.10937 3.86475 1.19531 4.821C0.473438 5.54756 0.24375 7.20225 0.24375 7.20225C0.24375 7.20225 0 9.14756 0 11.0882V12.9069C0 14.8476 0.239062 16.7929 0.239062 16.7929C0.239062 16.7929 0.473437 18.4476 1.19062 19.1741C2.10469 20.1304 3.30469 20.0976 3.83906 20.2007C5.76094 20.3835 12 20.4397 12 20.4397C12 20.4397 17.0438 20.4304 20.4 20.1913C20.8688 20.1351 21.8906 20.1304 22.8047 19.1741C23.5266 18.4476 23.7609 16.7929 23.7609 16.7929C23.7609 16.7929 24 14.8522 24 12.9069V11.0882C24 9.14756 23.7609 7.20225 23.7609 7.20225ZM9.52031 15.1147V8.36943L16.0031 11.7538L9.52031 15.1147Z" fill="white"/>
<path d="M23.7609 57.2022C23.7609 57.2022 23.5266 55.5476 22.8047 54.821C21.8906 53.8647 20.8688 53.8601 20.4 53.8038C17.0438 53.5601 12.0047 53.5601 12.0047 53.5601H11.9953C11.9953 53.5601 6.95625 53.5601 3.6 53.8038C3.13125 53.8601 2.10937 53.8647 1.19531 54.821C0.473438 55.5476 0.24375 57.2022 0.24375 57.2022C0.24375 57.2022 0 59.1476 0 61.0882V62.9069C0 64.8476 0.239062 66.7929 0.239062 66.7929C0.239062 66.7929 0.473437 68.4476 1.19062 69.1741C2.10469 70.1304 3.30469 70.0976 3.83906 70.2007C5.76094 70.3835 12 70.4397 12 70.4397C12 70.4397 17.0438 70.4304 20.4 70.1913C20.8688 70.1351 21.8906 70.1304 22.8047 69.1741C23.5266 68.4476 23.7609 66.7929 23.7609 66.7929C23.7609 66.7929 24 64.8522 24 62.9069V61.0882C24 59.1476 23.7609 57.2022 23.7609 57.2022ZM9.52031 65.1147V58.3694L16.0031 61.7538L9.52031 65.1147Z" fill="#94C872"/>
</svg>
