<svg width="24" height="75" viewBox="0 0 24 75" fill="none" xmlns="http://www.w3.org/2000/svg">
<g clip-path="url(#clip0_5407_14140)">
<path d="M17.6921 12.1235C17.5887 12.074 17.4837 12.0263 17.3774 11.9806C17.1921 8.56727 15.327 6.61312 12.1952 6.59312C12.181 6.59304 12.1669 6.59304 12.1527 6.59304C10.2795 6.59304 8.72164 7.39261 7.76275 8.84759L9.48512 10.0291C10.2014 8.94229 11.3256 8.7106 12.1536 8.7106C12.1631 8.7106 12.1727 8.7106 12.1822 8.71069C13.2134 8.71726 13.9915 9.01707 14.4951 9.60175C14.8616 10.0274 15.1067 10.6156 15.2281 11.358C14.3139 11.2026 13.3251 11.1548 12.2681 11.2154C9.29059 11.3869 7.37639 13.1235 7.50495 15.5365C7.57019 16.7605 8.17996 17.8135 9.22187 18.5014C10.1028 19.0829 11.2374 19.3672 12.4165 19.3029C13.9737 19.2175 15.1954 18.6234 16.0476 17.537C16.6949 16.712 17.1042 15.6429 17.285 14.2957C18.0271 14.7436 18.5771 15.333 18.8809 16.0415C19.3974 17.2459 19.4275 19.225 17.8126 20.8385C16.3977 22.252 14.697 22.8635 12.1267 22.8824C9.27552 22.8612 7.11922 21.9469 5.71726 20.1646C4.40444 18.4957 3.72596 16.0852 3.70065 13C3.72596 9.91472 4.40444 7.5042 5.71726 5.83534C7.11922 4.05311 9.27549 3.13875 12.1266 3.11756C14.9985 3.13891 17.1924 4.05767 18.648 5.8485C19.3617 6.7267 19.8999 7.8311 20.2546 9.11879L22.273 8.58027C21.843 6.99527 21.1664 5.62946 20.2456 4.49675C18.3795 2.20084 15.6502 1.02439 12.1337 1H12.1196C8.6102 1.02431 5.91151 2.20522 4.09854 4.50991C2.48524 6.5608 1.65305 9.41446 1.62509 12.9916L1.625 13L1.62509 13.0084C1.65305 16.5855 2.48524 19.4392 4.09854 21.4901C5.91151 23.7947 8.6102 24.9757 12.1196 25H12.1337C15.2537 24.9784 17.453 24.1615 19.2647 22.3514C21.6351 19.9832 21.5637 17.0149 20.7825 15.1926C20.222 13.8859 19.1534 12.8245 17.6921 12.1235ZM12.3051 17.1884C11.0001 17.2619 9.6443 16.6761 9.57745 15.4215C9.5279 14.4912 10.2395 13.4532 12.3851 13.3296C12.6309 13.3154 12.872 13.3085 13.1089 13.3085C13.8882 13.3085 14.6174 13.3842 15.2802 13.5291C15.033 16.6169 13.5827 17.1182 12.3051 17.1884Z" fill="white"/>
</g>
<g clip-path="url(#clip1_5407_14140)">
<path d="M17.6921 62.1235C17.5887 62.074 17.4837 62.0263 17.3774 61.9806C17.1921 58.5673 15.327 56.6131 12.1952 56.5931C12.181 56.593 12.1669 56.593 12.1527 56.593C10.2795 56.593 8.72164 57.3926 7.76275 58.8476L9.48512 60.0291C10.2014 58.9423 11.3256 58.7106 12.1536 58.7106C12.1631 58.7106 12.1727 58.7106 12.1822 58.7107C13.2134 58.7173 13.9915 59.0171 14.4951 59.6017C14.8616 60.0274 15.1067 60.6156 15.2281 61.358C14.3139 61.2026 13.3251 61.1548 12.2681 61.2154C9.29059 61.3869 7.37639 63.1235 7.50495 65.5365C7.57019 66.7605 8.17996 67.8135 9.22187 68.5014C10.1028 69.0829 11.2374 69.3672 12.4165 69.3029C13.9737 69.2175 15.1954 68.6234 16.0476 67.537C16.6949 66.712 17.1042 65.6429 17.285 64.2957C18.0271 64.7436 18.5771 65.333 18.8809 66.0415C19.3974 67.2459 19.4275 69.225 17.8126 70.8385C16.3977 72.252 14.697 72.8635 12.1267 72.8824C9.27552 72.8612 7.11922 71.9469 5.71726 70.1646C4.40444 68.4957 3.72596 66.0852 3.70065 63C3.72596 59.9147 4.40444 57.5042 5.71726 55.8353C7.11922 54.0531 9.27549 53.1387 12.1266 53.1176C14.9985 53.1389 17.1924 54.0577 18.648 55.8485C19.3617 56.7267 19.8999 57.8311 20.2546 59.1188L22.273 58.5803C21.843 56.9953 21.1664 55.6295 20.2456 54.4967C18.3795 52.2008 15.6502 51.0244 12.1337 51H12.1196C8.6102 51.0243 5.91151 52.2052 4.09854 54.5099C2.48524 56.5608 1.65305 59.4145 1.62509 62.9916L1.625 63L1.62509 63.0084C1.65305 66.5855 2.48524 69.4392 4.09854 71.4901C5.91151 73.7947 8.6102 74.9757 12.1196 75H12.1337C15.2537 74.9784 17.453 74.1615 19.2647 72.3514C21.6351 69.9832 21.5637 67.0149 20.7825 65.1926C20.222 63.8859 19.1534 62.8245 17.6921 62.1235ZM12.3051 67.1884C11.0001 67.2619 9.6443 66.6761 9.57745 65.4215C9.5279 64.4912 10.2395 63.4532 12.3851 63.3296C12.6309 63.3154 12.872 63.3085 13.1089 63.3085C13.8882 63.3085 14.6174 63.3842 15.2802 63.5291C15.033 66.6169 13.5827 67.1182 12.3051 67.1884Z" fill="#94C872"/>
</g>
<defs>
<clipPath id="clip0_5407_14140">
<rect width="24" height="24" fill="white" transform="translate(0 1)"/>
</clipPath>
<clipPath id="clip1_5407_14140">
<rect width="24" height="24" fill="white" transform="translate(0 51)"/>
</clipPath>
</defs>
</svg>
