<svg width="24" height="75" viewBox="0 0 24 75" fill="none" xmlns="http://www.w3.org/2000/svg">
<g clip-path="url(#clip0_5410_8646)">
<path d="M24 13.2505C24 6.62313 18.6274 1.25049 12 1.25049C5.37264 1.25049 0 6.62313 0 13.2505C0 18.878 3.87456 23.6003 9.10128 24.8972V16.9177H6.62688V13.2505H9.10128V11.6703C9.10128 7.58601 10.9498 5.69289 14.9597 5.69289C15.72 5.69289 17.0318 5.84217 17.5685 5.99097V9.31497C17.2853 9.28521 16.7933 9.27033 16.1822 9.27033C14.2147 9.27033 13.4544 10.0158 13.4544 11.9535V13.2505H17.3741L16.7006 16.9177H13.4544V25.1627C19.3954 24.4451 24 19.3858 24 13.2505Z" fill="#1A1A1A"/>
</g>
<g clip-path="url(#clip1_5410_8646)">
<path d="M24 63.2505C24 56.6231 18.6274 51.2505 12 51.2505C5.37264 51.2505 0 56.6231 0 63.2505C0 68.878 3.87456 73.6003 9.10128 74.8972V66.9177H6.62688V63.2505H9.10128V61.6703C9.10128 57.586 10.9498 55.6929 14.9597 55.6929C15.72 55.6929 17.0318 55.8422 17.5685 55.991V59.315C17.2853 59.2852 16.7933 59.2703 16.1822 59.2703C14.2147 59.2703 13.4544 60.0158 13.4544 61.9535V63.2505H17.3741L16.7006 66.9177H13.4544V75.1627C19.3954 74.4451 24 69.3858 24 63.2505Z" fill="#243c70"/>
</g>
<defs>
<clipPath id="clip0_5410_8646">
<rect width="24" height="24" fill="white" transform="translate(0 1)"/>
</clipPath>
<clipPath id="clip1_5410_8646">
<rect width="24" height="24" fill="white" transform="translate(0 51)"/>
</clipPath>
</defs>
</svg>
